<?xml version="1.0" standalone="no"?><!DOCTYPE svg PUBLIC "-//W3C//DTD SVG 1.1//EN" "http://www.w3.org/Graphics/SVG/1.1/DTD/svg11.dtd"><svg class="icon" width="200px" height="200.00px" viewBox="0 0 1024 1024" version="1.1" xmlns="http://www.w3.org/2000/svg"><path fill="#8a8a8a" d="M832 510.208H704c0-106.048 85.952-192 192-192 35.328 0 64-28.608 64-64 0-35.328-28.672-64-64-64-176.704 0-320 143.296-320 320v256c0 70.72 57.344 128 128 128h128c70.656 0 128-57.28 128-128v-128c0-70.72-57.344-128-128-128z m-448-192c35.328 0 64-28.608 64-64 0-35.328-28.672-64-64-64-176.704 0-320 143.296-320 320v256c0 70.72 57.28 128 128 128h128c70.72 0 128-57.28 128-128v-128c0-70.72-57.28-128-128-128H192c0-106.048 85.952-192 192-192z"  /></svg>