<?xml version="1.0" standalone="no"?><!DOCTYPE svg PUBLIC "-//W3C//DTD SVG 1.1//EN" "http://www.w3.org/Graphics/SVG/1.1/DTD/svg11.dtd"><svg class="icon" width="200px" height="200.00px" viewBox="0 0 1024 1024" version="1.1" xmlns="http://www.w3.org/2000/svg"><path fill="#8a8a8a" d="M332.107776 298.66496c-22.177792-22.212608-58.148864-22.212608-80.318464 0L78.260224 472.185856c-22.203392 22.168576-22.203392 58.139648 0 80.309248l173.529088 173.559808c11.0848 11.067392 25.638912 16.626688 40.159232 16.626688s29.06624-5.56032 40.159232-16.626688c22.168576-22.185984 22.168576-58.148864 0-80.330752L198.719488 512.345088l133.388288-133.379072C354.276352 356.788224 354.276352 320.825344 332.107776 298.66496zM946.397184 472.185856 772.859904 298.66496c-22.177792-22.212608-58.140672-22.212608-80.309248 0-22.177792 22.160384-22.177792 58.123264 0 80.300032l133.379072 133.379072L692.550656 645.72416c-22.177792 22.181888-22.177792 58.144768 0 80.330752 11.083776 11.067392 25.621504 16.626688 40.150016 16.626688 14.52032 0 29.074432-5.56032 40.159232-16.626688l173.538304-173.559808C968.592384 530.326528 968.592384 494.354432 946.397184 472.185856zM598.665216 285.824c-29.27616-11.311104-62.152704 3.321856-73.404416 32.596992L391.593984 665.476096c-11.25888 29.284352 3.295232 62.117888 32.571392 73.411584 6.730752 2.57024 13.654016 3.811328 20.402176 3.811328 22.815744 0 44.32896-13.846528 53.009408-36.400128l133.676032-347.063296C642.504704 329.96864 627.914752 297.08288 598.665216 285.824z" /></svg>